<svg width="17" height="17" viewBox="0 0 17 17" fill="none" xmlns="http://www.w3.org/2000/svg">
<g clip-path="url(#clip0_9_268)">
<path d="M14.75 8.60419C14.7523 9.4841 14.5467 10.3521 14.15 11.1375C13.6796 12.0787 12.9565 12.8703 12.0616 13.4237C11.1668 13.9771 10.1355 14.2704 9.08333 14.2709C8.20342 14.2731 7.33541 14.0676 6.55 13.6709L2.75 14.9375L4.01667 11.1375C3.61995 10.3521 3.41437 9.4841 3.41667 8.60419C3.41707 7.55202 3.71041 6.52075 4.26381 5.62589C4.81722 4.73102 5.60884 4.0079 6.55 3.53752C7.33541 3.14081 8.20342 2.93522 9.08333 2.93752H9.41667C10.8062 3.01418 12.1187 3.60069 13.1028 4.58476C14.0868 5.56882 14.6733 6.88129 14.75 8.27085V8.60419Z" stroke="#878781" stroke-width="1.33333" stroke-linecap="round" stroke-linejoin="round"/>
</g>
<defs>
<clipPath id="clip0_9_268">
<rect width="16" height="16" fill="white" transform="translate(0.75 0.9375)"/>
</clipPath>
</defs>
</svg>
