<svg width="17" height="16" viewBox="0 0 17 16" fill="none" xmlns="http://www.w3.org/2000/svg">
<g clip-path="url(#clip0_9_223)">
<path d="M14.8125 7.66669C14.8148 8.5466 14.6092 9.41461 14.2125 10.2C13.7421 11.1412 13.019 11.9328 12.1241 12.4862C11.2293 13.0396 10.198 13.3329 9.14583 13.3334C8.26592 13.3356 7.39791 13.1301 6.6125 12.7334L2.8125 14L4.07917 10.2C3.68245 9.41461 3.47687 8.5466 3.47917 7.66669C3.47957 6.61452 3.77291 5.58325 4.32631 4.68839C4.87972 3.79352 5.67134 3.0704 6.6125 2.60002C7.39791 2.20331 8.26592 1.99772 9.14583 2.00002H9.47917C10.8687 2.07668 12.1812 2.66319 13.1653 3.64726C14.1493 4.63132 14.7358 5.94379 14.8125 7.33335V7.66669Z" stroke="#878781" stroke-width="1.33333" stroke-linecap="round" stroke-linejoin="round"/>
</g>
<defs>
<clipPath id="clip0_9_223">
<rect width="16" height="16" fill="white" transform="translate(0.8125)"/>
</clipPath>
</defs>
</svg>
