<svg width="17" height="16" viewBox="0 0 17 16" fill="none" xmlns="http://www.w3.org/2000/svg">
<g clip-path="url(#clip0_9_367)">
<path d="M14.75 7.66669C14.7523 8.5466 14.5467 9.41461 14.15 10.2C13.6796 11.1412 12.9565 11.9328 12.0616 12.4862C11.1668 13.0396 10.1355 13.3329 9.08333 13.3334C8.20342 13.3356 7.33541 13.1301 6.55 12.7334L2.75 14L4.01667 10.2C3.61995 9.41461 3.41437 8.5466 3.41667 7.66669C3.41707 6.61452 3.71041 5.58325 4.26381 4.68839C4.81722 3.79352 5.60884 3.0704 6.55 2.60002C7.33541 2.20331 8.20342 1.99772 9.08333 2.00002H9.41667C10.8062 2.07668 12.1187 2.66319 13.1028 3.64726C14.0868 4.63132 14.6733 5.94379 14.75 7.33335V7.66669Z" stroke="#878781" stroke-width="1.33333" stroke-linecap="round" stroke-linejoin="round"/>
</g>
<defs>
<clipPath id="clip0_9_367">
<rect width="16" height="16" fill="white" transform="translate(0.75)"/>
</clipPath>
</defs>
</svg>
