<svg width="16" height="17" viewBox="0 0 16 17" fill="none" xmlns="http://www.w3.org/2000/svg">
<g clip-path="url(#clip0_9_261)">
<path d="M13.6133 3.99085C13.2789 3.65523 12.8815 3.38894 12.4439 3.20724C12.0063 3.02554 11.5371 2.93201 11.0633 2.93201C10.5895 2.93201 10.1204 3.02554 9.68278 3.20724C9.2452 3.38894 8.84778 3.65523 8.51333 3.99085L8 4.51085L7.48666 3.99085C7.15221 3.65523 6.7548 3.38894 6.31721 3.20724C5.87962 3.02554 5.41047 2.93201 4.93666 2.93201C4.46285 2.93201 3.9937 3.02554 3.55612 3.20724C3.11853 3.38894 2.72112 3.65523 2.38666 3.99085C0.97333 5.40418 0.886663 7.79085 2.66666 9.60418L8 14.9375L13.3333 9.60418C15.1133 7.79085 15.0267 5.40418 13.6133 3.99085Z" stroke="#878781" stroke-width="1.33333" stroke-linecap="round" stroke-linejoin="round"/>
</g>
<defs>
<clipPath id="clip0_9_261">
<rect width="16" height="16" fill="white" transform="translate(0 0.9375)"/>
</clipPath>
</defs>
</svg>
